<svg xmlns="http://www.w3.org/2000/svg" width="80" height="66.6667" version="1.0" viewBox="0 0 256 256"><path d="M206.3 17.8c-6.9 2.5-12.5 6.5-15.9 11.4-1.5 2.2-7.6 8.4-13.6 13.8L166 52.8l-7.2-2.1c-7-2-10-2.1-72.4-2.4l-65.1-.4-3.9-4c-3.9-4-6.1-4.8-8.2-2.7-1.7 1.7-1.7 75.9 0 77.6 2.1 2.1 4.3 1.3 8.3-2.8l3.9-4h11.8c6.5 0 11.8.2 11.8.4 0 .3-1 4.4-2.2 9.3-3.1 12.5-3.1 32.2 0 44.7 5.6 22.2 19.2 42.4 37.9 55.9 7.6 5.5 22.6 12.3 32.9 14.9 12.6 3.1 32.2 3.1 44.8 0 28.5-7.1 51.6-26 64.1-52.4 6.8-14.3 8.9-24.4 8.9-41.3-.1-16.9-2.7-28.1-9.7-42.2l-4.6-9 7.2-8.1c4-4.5 9-9.4 11.1-11 11.5-8.6 15.5-25 9.3-38.5-6.6-14.4-24-22-38.4-16.9zm18.5 9c.2.7.9.9 1.5.5.7-.4.4.5-.6 2.1-2.1 3.1-1.6 4.6.8 2.6 1.4-1.1 2.1-.8 5.4 2.4 2 2 4.1 3.3 4.6 2.9.4-.5.5-.3.2.4-.4.6-.2 1.3.5 1.5.7.3 1.4 3.1 1.6 7 .3 5.1 0 7.5-1.7 11.4l-2.2 4.8-2.5-2.6c-2-1.9-2.4-3-1.7-4.3.6-.9 1.2-1.5 1.5-1.3.8.5 5.8-5.8 5.8-7.2 0-1.7-3.9 1.8-5.1 4.5-.8 1.6-.8 1.4-.4-.8 1.5-7.4-4.6-16.6-12.4-18.7-3.6-.9-5.2-.9-9 .4-2.5.8-4.9 1.2-5.4.7-.4-.4 1-2.4 3-4.5 3.7-3.7 4-3.8 9.7-3.4 3.4.3 6.2 1 6.4 1.6zm8.3 4.9c1.3 1.6 1.2 1.7-.3.4-1-.7-1.8-1.5-1.8-1.7 0-.8.8-.3 2.1 1.3zM203.8 37c-.7 1-1.4 1.7-1.7 1.5-.4-.4 1.8-3.5 2.5-3.5.2 0-.1.9-.8 2zm15.6 4.1c5.9 2.7 5.5 11.5-.6 14-2.5 1-3.5 1-5.6-.2-3.9-2.2-4.9-4.4-2.9-6.4.9-.9 1.7-2.3 1.7-3.1 0-2.4 1.9-5.4 3.5-5.4.8 0 2.5.5 3.9 1.1zm-8.4 3c-.7 1.1-1.4 1.8-1.7 1.5-.3-.3 0-1.2.7-2.1 1.8-2.1 2.3-1.9 1 .6zM84.7 56.4c63.2.2 66.1.2 72.8 2.2 33.4 9.9 55.7 32.6 64.1 65.4 3 11.7 2.5 31.7-1 43.3-9.2 30.7-30.7 52.1-61.3 61.3-12.5 3.8-30.9 4-43.5.5-4.8-1.3-8.5-2.8-8.2-3.2.3-.5-.1-.6-.9-.3-2 .7-13.2-4.7-11.6-5.7.7-.4 1.8-.5 2.4-.2.5.3.2-.3-.8-1.3-1.7-1.8-1.9-1.8-3.1-.2-1.2 1.6-1.9 1.4-8.3-3.1-12.3-8.7-24.5-23.8-29.7-37.1-1-2.5-1.4-4.2-1-3.7.4.4 1.5.1 2.3-.7 2.3-2.1 3.2-1.1 7.4 6.9 12.6 24 38.1 41 64.9 43.2l6.8.6v-7.9l-8.4-1.1c-17.5-2.4-29.7-8.4-42.1-20.8-12.4-12.4-18.4-24.6-20.8-42.1-1-7.2-1.4-8.4-3.2-8.6-1.1-.2-2-1-2-1.8s-2.2-3.6-4.9-6.2c-4.7-4.6-4.8-4.9-4.2-8.9.4-2.7 1.8-5.3 3.9-7.5 3.6-3.9 5-4.2 7-1.4 1.4 2.1 1.5 2.1 2.1-.6.4-1.4.5-2.9.1-3.2-.3-.3-.5 0-.5.7 0 .9-.4.9-1.4-.1-2.1-1.9 1.6-2.5 16-2.7l12.2-.1-3.3 6.2c-11.6 21.9-7.6 47.7 10 65.3 15.7 15.7 36.4 20.4 58.2 13.3 5.4-1.7 10.6-3.3 11.7-3.5 1-.2 2.6-.8 3.5-1.4 1.3-.8 1.2-.9-.6-.4-3.3.9-2.9.2 2.1-3.3 5.5-4 13.1-13.9 16.4-21.3l2.4-5.7 3 3.4c1.7 2 2.8 4 2.4 4.9-1 2.7.3 1.6 1.9-1.6.9-1.7 1.4-3.3 1.1-3.7-.3-.3-.6.1-.6.8 0 .8-1.6-.1-3.5-2-3.3-3.2-3.5-3.8-2.9-7.5.6-4.1 6.8-11.9 8.9-11.2.5.2 1.3 2.1 1.6 4.3.4 2.7.6 1.4.7-4.3 0-7.9-.1-8.2-1.7-6.2-1.6 2-1.7 2-5.6-2.2-2.3-2.6-4.7-6.7-6.1-10.5-1.2-3.5-3.9-8.9-6.1-12.2-3.7-5.6-3.8-5.8-2.1-7.7 1.8-1.8 2-1.8 7.1 3.1l5.2 4.9-5-5.3c-4.5-4.8-9.7-8.9-8.1-6.4.3.5-.2 1.6-1.2 2.5-1.6 1.4-2.1 1.1-6.9-3.3-2.9-2.7-4.9-5-4.5-5.3.4-.2.2-.3-.4-.1-.7.1-2.9-.6-5-1.7-6.2-3-19.1-5.9-26.3-5.9-12.5 0-24 4-34.9 12.2l-5.3 4-36.9-.4c-35.1-.3-36.9-.4-39.1-2.3l-2.2-2 .5 2.2c.3 1.2.1 2.4-.6 2.6-.8.3-1.1-6.2-1.1-24.3 0-18.7.3-24.6 1.2-24.3.6.3 30.8.6 67 .7zm148.1 8.3c-1.7 2.1-11.1 6.3-14.2 6.3h-3l3.8-3.5c2.1-1.9 3.5-3.5 3.1-3.5-.4 0 .7-1 2.6-2.3l3.4-2.4 2.6 2.1c1.8 1.5 2.3 2.5 1.7 3.3zm-16.5-.3c2.8 0 4.4.2 3.6.4-.8.3-2.4 1.4-3.7 2.5l-2.3 2.1-4.2-4.3c-3.3-3.4-3.6-4-1.3-2.5 1.8 1.1 4.7 1.8 7.9 1.8zM132 123.2v11.2l-7.5-7.4c-4.1-4.1-7.5-7.8-7.5-8.2 0-1.3 8-4.9 14.8-6.7.1-.1.2 5 .2 11.1zM55.5 115c-2 2.3-2.9 2.1-1.9-.4.3-.9 1.3-1.6 2.2-1.6 1.3 0 1.2.3-.3 2zm95.3 1.3 4.2 2.2-7.2 7.3-7.3 7.2.3-8.1c.4-9.6 1.7-10.8 6.7-5.9 1.8 1.7 3.5 2.8 3.8 2.3.6-1-2.1-4.5-4.8-6.1-3.6-2.1-.1-1.2 4.3 1.1zm-32.9 16.1c6.5 6.6 7 7.3 4.5 6.8-1.6-.3-2.3-.7-1.6-1 1-.3 1-.7.1-1.8-1-1.2-1.4-1.1-2.6.6-2 2.8-3.6 2.5-7.7-1.6l-3.5-3.5 1.6-3.5c.9-1.9 1.7-3.4 1.8-3.4l7.4 7.4zm46-3.7c1 2.1 2.3 5.5 2.9 7.5l1 3.8h-22.2l7.4-7.5c4.1-4.1 7.8-7.5 8.2-7.5.4 0 1.6 1.7 2.7 3.7zm-110.2 9.6 3.4 3-3.5 3.6c-2 2-3.6 4.5-3.6 5.6 0 1.7.2 1.7 2.3-.3 3.2-3 3.7-2.8 3.7 1.5 0 2.1.7 6.5 1.5 9.8.8 3.3 1.4 6.4 1.5 6.8 0 .5-1.8-1.3-4-3.8s-4-4.3-4.1-3.8c-.1.4-.5-.3-.9-1.7-.9-2.8-1.2-27.3-.3-25.1.3.8 2.1 2.7 4 4.4zm54.3.8c-3.2.7-3.2.6-2.5-2.4l.7-2.5 2.1 2.2 2.2 2.1-2.5.6zm87.6-.1 2.3 2.5-2.5 2.8-2.4 2.8v-2.8c0-1.5-.2-4.6-.5-6.8s-.2-3.3.1-2.5c.4.8 1.7 2.6 3 4zM119 155.5c-4.1 4.1-7.8 7.5-8.2 7.5-1 0-4.3-6.7-5.6-11.3l-1-3.7h22.2l-7.4 7.5zm42.9 5.1c.7-.5.8-.1.4.9-.4 1.3-2.2.1-7.9-5.6-4.1-4.1-7.4-7.6-7.4-7.8 0-.3 3.1 2.5 6.9 6.3 3.8 3.8 7.4 6.5 8 6.2zm.1-11.3c0 .2-1 1.3-2.3 2.5l-2.3 2.2-2.4-2.5-2.3-2.5h4.6c2.6 0 4.7.1 4.7.3zm4 3.8c-.6 1.9-1.4 4.1-2 4.9-.8 1.3-1.1 1.3-2.7-.2-1.6-1.7-1.5-2 1.7-5.3 1.8-1.9 3.5-3.3 3.7-3.2.1.2-.2 1.9-.7 3.8zm-11 16.1c0 1-6.7 4.3-11.2 5.6l-3.8 1v-22.2l7.5 7.4c4.1 4.1 7.5 7.8 7.5 8.2zm-23.5-13.3c-.6.6-.8 4.9-.5 10.1l.5 9.1-3-.7c-3.6-.8-10.5-4.2-10.5-5.1 0-.8 13.2-14.3 13.9-14.3.3 0 .1.4-.4.9zm-76 15.7c-2.1 1.6-2.4 1.3-3.9-4.8l-.6-2.7 3.2 3c3.2 2.9 3.2 3 1.3 4.5z"/><path d="M211 51.9c0 .6.4 1.3 1 1.6.6.3.7-.1.4-.9-.7-1.8-1.4-2.1-1.4-.7zM22.5 63.6c-4.7 5.2-6.3 9.4-2.2 5.5l2.5-2.3.4 2.8c.2 2.3.8 2.9 2.6 2.8 1.2 0 4.9-.1 8.2-.2l6-.2v-7.9l-6.2-.3c-5.9-.3-6.3-.5-6.1-2.6.4-3.2-.7-2.7-5.2 2.4zM48 67.9V72h47c51.5 0 55.8.4 69.2 6 13 5.4 26.1 16.9 33.6 29.3 4.5 7.5 8.1 18.3 9.5 28.3l1.1 8.4h7.9l-.6-6.8c-2.3-27.8-19.8-53-45.1-65.2-15.7-7.5-14.2-7.3-71.3-7.7L48 63.9v4zM18 73.2c0 1.6 8.7 10.4 9.5 9.6 1-.9-.6-3.2-5.1-7.2-2.7-2.3-4.4-3.3-4.4-2.4zM22.2 92.1c-2.4 2.6-4.2 5.3-4 5.9.4 1.3 9.8-8.3 9.8-10 0-1.8-1.4-.9-5.8 4.1z"/><path d="M172.1 97.4c1 .9 6.9 3.6 6.9 3.2 0-.6-5.5-3.6-6.6-3.6-.4 0-.5.2-.3.4zM193.7 115.1c1 1.3.8 2-1.6 4.3-1.7 1.6-2.7 3.5-2.4 4.3.4 1.1 1.2.8 3.5-1.4 2.4-2.3 3-2.5 3.8-1.3.5.8 1 1.9 1 2.4s.3.7.6.4c.7-.8-3.2-8.4-4.8-9.4-1-.6-1.1-.5-.1.7zM59.2 133.5c0 1.6.2 2.2.5 1.2.2-.9.2-2.3 0-3-.3-.6-.5.1-.5 1.8zM189 178.5c-3.1 3.2-3.5 3.4-5.1 1.9-1-.9-2.3-1.3-2.9-.9-.8.5-.5 1.2.9 2.2 1.2.8 1.8 2 1.5 2.6-.4.7 1.6-1 4.5-3.8 2.8-2.7 5.1-5.1 5.1-5.2 0-.7-.8-.1-4 3.2zM175 189c-1.9 1.1-3.1 1.9-2.7 2 1.1 0 6.7-2.9 6.7-3.5 0-.7-.1-.7-4 1.5zM65.5 190c-1.1 1.3-1.5 2.4-.9 2.9.5.6 1.6 0 2.7-1.4 2.1-3 .6-4.2-1.8-1.5zM78.3 204.9c-1.8 1.5-2 2.1-1 2.9.9.8 1.6.6 2.6-1 1.2-2 1.5-1.9 7.4 3.8l6.2 5.9-6.5-6.8c-3.5-3.7-6.5-6.7-6.5-6.7 0 .1-1 .9-2.2 1.9z"/></svg>