<?xml version="1.0" standalone="no"?>
<!DOCTYPE svg PUBLIC "-//W3C//DTD SVG 20010904//EN"
 "http://www.w3.org/TR/2001/REC-SVG-20010904/DTD/svg10.dtd">
<svg version="1.0" xmlns="http://www.w3.org/2000/svg"
 width="200.000000pt" height="200.000000pt" viewBox="0 0 200.000000 200.000000"
 preserveAspectRatio="xMidYMid meet">

<g transform="translate(0.000000,200.000000) scale(0.100000,-0.100000)"
fill="#000000" stroke="none">
<path d="M165 1218 c-36 -34 -65 -68 -65 -76 0 -25 49 -82 65 -76 13 5 13 3 0
-22 -23 -45 -18 -72 18 -106 17 -16 37 -34 42 -39 6 -6 18 -18 28 -27 9 -9 17
-24 17 -33 0 -23 23 -40 40 -29 8 5 21 5 30 0 11 -6 21 -5 28 2 8 8 15 8 27
-2 12 -10 18 -10 30 0 12 10 18 10 30 0 22 -19 45 5 45 47 0 31 4 36 40 50 22
9 40 20 40 26 0 5 -7 7 -15 3 -19 -7 -19 1 0 20 18 18 20 65 3 82 -9 9 -9 12
0 12 19 0 34 -39 27 -71 -8 -36 2 -38 15 -3 8 20 6 34 -5 57 -18 37 -18 38 -1
31 9 -4 24 9 41 34 21 32 24 44 16 60 -12 22 -119 122 -130 122 -18 0 -76 -47
-76 -62 0 -24 -45 -68 -69 -68 -25 0 -76 48 -70 65 5 12 -60 65 -78 65 -5 0
-38 -28 -73 -62z m128 -130 l-52 -52 -26 24 c-29 27 -27 38 4 18 30 -18 51 3
33 33 -15 24 -8 39 10 21 19 -19 48 -14 48 7 0 11 -4 23 -10 26 -5 3 -10 11
-10 18 0 6 12 -1 27 -16 l28 -27 -52 -52z m173 77 c-9 -9 -16 -21 -16 -26 0
-17 32 -23 52 -10 26 16 35 7 14 -14 -9 -9 -16 -21 -16 -26 0 -17 32 -23 52
-10 30 19 31 8 3 -19 l-25 -24 -54 53 -54 54 26 22 c30 26 44 25 18 0z m-1
-95 c67 -67 63 -77 -11 -25 -27 19 -59 35 -72 35 -13 0 -43 -19 -72 -46 -42
-39 -51 -44 -56 -29 -5 12 9 32 47 71 71 72 88 71 164 -6z m-60 -20 c9 -15
-14 -40 -31 -33 -22 8 -18 43 5 43 11 0 23 -5 26 -10z m-214 -28 c-15 -29 -14
-39 10 -63 11 -11 18 -23 16 -26 -3 -2 -15 5 -26 16 -23 23 -28 70 -9 89 17
17 22 7 9 -16z m278 -12 c-1 -3 -23 -25 -50 -49 l-49 -43 -9 25 c-6 14 -22 32
-36 39 l-26 14 21 19 c11 10 20 13 20 7 0 -17 38 -34 60 -27 10 3 22 15 25 25
5 17 9 18 26 7 10 -6 19 -14 18 -17z m-235 4 c10 -26 7 -56 -6 -52 -18 6 -32
34 -25 52 8 20 23 21 31 0z m330 1 c6 -17 -2 -45 -14 -45 -5 0 -11 9 -15 20
-11 33 16 57 29 25z m-50 -41 c9 -8 16 -19 16 -24 0 -13 -30 -40 -44 -40 -17
0 -36 21 -36 40 0 19 19 40 36 40 7 0 20 -7 28 -16z m-190 -17 c12 -9 17 -23
14 -42 -3 -28 -6 -30 -43 -30 -37 0 -40 2 -43 30 -6 45 35 69 72 42z m109 -27
c4 -16 0 -20 -20 -20 -25 0 -26 0 -8 20 10 11 19 20 20 20 2 0 5 -9 8 -20z
m-16 -92 c-2 -13 -4 -5 -4 17 -1 22 1 32 4 23 2 -10 2 -28 0 -40z m63 16 c0
-21 -4 -33 -10 -29 -5 3 -10 19 -10 36 0 16 5 29 10 29 6 0 10 -16 10 -36z
m-123 -21 c-3 -10 -5 -2 -5 17 0 19 2 27 5 18 2 -10 2 -26 0 -35z m30 15 c-3
-7 -5 -2 -5 12 0 14 2 19 5 13 2 -7 2 -19 0 -25z m-90 -20 c-3 -8 -6 -5 -6 6
-1 11 2 17 5 13 3 -3 4 -12 1 -19z"/>
<path d="M464 965 c-8 -21 2 -45 19 -45 8 0 20 7 27 15 10 12 10 18 0 30 -7 8
-19 15 -27 15 -7 0 -16 -7 -19 -15z"/>
<path d="M264 927 c1 -25 31 -46 46 -31 6 6 12 20 14 31 4 16 -1 20 -28 20
-27 0 -33 -4 -32 -20z"/>
<path d="M816 1053 c-19 -40 -32 -74 -27 -77 5 -3 14 1 21 9 17 20 67 19 88
-1 29 -30 24 2 -11 72 l-35 68 -36 -71z m54 -20 c0 -9 -13 -10 -38 -4 -1 1 2
11 9 22 9 17 13 19 20 8 5 -8 9 -19 9 -26z"/>
<path d="M962 1059 c5 -66 21 -89 65 -89 41 0 63 33 63 95 0 41 -4 55 -15 55
-10 0 -15 -15 -17 -57 -3 -57 -3 -58 -33 -58 -30 0 -30 1 -33 58 -2 44 -7 57
-19 57 -13 0 -15 -10 -11 -61z"/>
<path d="M1130 1110 c0 -5 11 -10 25 -10 23 0 24 -4 27 -62 2 -35 8 -63 13
-63 6 0 11 28 13 63 3 58 4 62 27 62 14 0 25 5 25 10 0 6 -28 10 -65 10 -37 0
-65 -4 -65 -10z"/>
<path d="M1310 1100 c-49 -49 -3 -139 64 -126 45 9 66 34 66 77 0 28 -6 42
-22 53 -31 22 -84 20 -108 -4z m95 -24 c16 -23 11 -54 -9 -68 -24 -17 -63 -8
-76 17 -29 55 51 104 85 51z"/>
<path d="M1500 1046 l0 -74 43 5 c63 8 87 27 87 68 0 48 -31 75 -87 75 l-43 0
0 -74z m90 34 c24 -24 24 -29 4 -58 -10 -14 -25 -22 -45 -22 -28 0 -29 2 -29
43 0 24 3 47 7 50 13 13 43 7 63 -13z"/>
<path d="M1690 1045 c0 -43 4 -75 10 -75 6 0 10 11 10 25 0 21 5 25 28 25 35
0 52 16 52 52 0 32 -24 48 -69 48 l-31 0 0 -75z m58 46 c21 -13 10 -46 -16
-49 -19 -3 -22 1 -22 27 0 31 13 39 38 22z"/>
</g>
</svg>
